<svg width="63" height="31" viewBox="0 0 63 31" fill="none" xmlns="http://www.w3.org/2000/svg">
<path d="M0 6.65954H3.42616V8.71525C3.71687 8.05075 4.17369 7.51089 4.79663 7.0956C5.41957 6.68031 6.17748 6.47266 7.07036 6.47266C7.65177 6.47266 8.10859 6.53496 8.44083 6.65954V10.2725C8.06706 10.1064 7.58947 10.0234 7.00806 10.0234C5.94906 10.0234 5.08734 10.366 4.42287 11.0512C3.7584 11.7364 3.42616 12.6812 3.42616 13.8856V22.233H0V6.65954Z" fill="#E2B673"/>
<path d="M17.0391 22.4199C15.5233 22.4199 14.1528 22.0772 12.9277 21.392C11.7233 20.686 10.7785 19.7308 10.0933 18.5265C9.40804 17.3014 9.06543 15.9413 9.06543 14.4462C9.06543 12.9512 9.40804 11.6015 10.0933 10.3971C10.7785 9.17205 11.7233 8.21685 12.9277 7.53166C14.1528 6.82566 15.5233 6.47266 17.0391 6.47266C18.5549 6.47266 19.915 6.82566 21.1193 7.53166C22.3444 8.21685 23.2996 9.17205 23.9848 10.3971C24.6701 11.6015 25.0127 12.9512 25.0127 14.4462C25.0127 15.9413 24.6701 17.3014 23.9848 18.5265C23.2996 19.7308 22.3444 20.686 21.1193 21.392C19.915 22.0772 18.5549 22.4199 17.0391 22.4199ZM17.0391 19.1183C18.368 19.1183 19.4478 18.6822 20.2784 17.8101C21.109 16.938 21.5242 15.8167 21.5242 14.4462C21.5242 13.0758 21.109 11.9545 20.2784 11.0824C19.4478 10.2102 18.368 9.77425 17.0391 9.77425C15.7101 9.77425 14.6304 10.2102 13.7998 11.0824C12.9692 11.9545 12.5539 13.0758 12.5539 14.4462C12.5539 15.8167 12.9692 16.938 13.7998 17.8101C14.6304 18.6822 15.7101 19.1183 17.0391 19.1183Z" fill="#E2B673"/>
<path d="M30.7082 19.4927L25.0083 6.66016H28.559L32.4213 15.724L36.2835 6.66016H39.8342L34.1343 19.4927V30.0204L30.7082 30.3942V19.4927Z" fill="#E2B673"/>
<path d="M47.6665 22.4199C46.1922 22.4199 44.8633 22.0772 43.6797 21.392C42.4961 20.7068 41.5617 19.762 40.8765 18.5576C40.1912 17.3533 39.8486 15.9828 39.8486 14.4462C39.8486 12.9096 40.1912 11.5392 40.8765 10.3348C41.5617 9.13055 42.4961 8.18575 43.6797 7.50051C44.8633 6.81528 46.1922 6.47266 47.6665 6.47266C48.6217 6.47266 49.5042 6.65954 50.314 7.03331C51.1446 7.38631 51.7468 7.8016 52.1205 8.27915V6.65954H55.609V22.233H52.1205V20.6133C51.7468 21.0909 51.155 21.5166 50.3451 21.8904C49.5353 22.2434 48.6424 22.4199 47.6665 22.4199ZM47.7911 19.1183C49.0785 19.1183 50.1375 18.6926 50.9681 17.8412C51.8194 16.9899 52.2451 15.8582 52.2451 14.4462C52.2451 13.0342 51.8194 11.9026 50.9681 11.0512C50.1375 10.1999 49.0785 9.77425 47.7911 9.77425C46.4622 9.77425 45.3616 10.1999 44.4895 11.0512C43.6382 11.9026 43.2125 13.0342 43.2125 14.4462C43.2125 15.8582 43.6382 16.9899 44.4895 17.8412C45.3616 18.6926 46.4622 19.1183 47.7911 19.1183Z" fill="#E2B673"/>
<path d="M58.7373 0.430401L62.1635 0.0566406V22.2333H58.7373V0.430401Z" fill="#E2B673"/>
</svg>
